# Blender v2.93.7 OBJ File: ''
# www.blender.org
o Cylinder
v 0.409973 1.507739 -0.799950
v 1.097799 1.507739 -0.059218
v 1.118251 -1.507739 -0.251947
v 0.409973 -1.507739 0.784467
v 0.844349 1.507739 0.494336
v -0.409973 1.507739 0.784467
v -1.097799 1.507739 0.043736
v -1.118251 -1.507739 0.236464
v -0.409973 -1.507739 -0.799950
v -0.844349 1.507739 -0.509819
vt 0.924894 1.000000
vt 0.790707 0.500000
vt 0.978505 0.500000
vt 0.641546 1.000000
vt 0.561820 0.500000
vt 0.438180 1.000000
vt 0.290707 0.500000
vt 0.141546 1.000000
vt 0.075106 0.500000
vt 0.759902 1.000000
vt 0.259902 1.000000
vt 0.021495 1.000000
vt 0.167786 0.051178
vt 0.431976 0.102458
vt 0.332214 0.448822
vt 0.667786 0.448822
vt 0.832214 0.051178
vt 0.538187 0.195227
vt 0.484101 0.264528
vt 0.068024 0.397542
vt 0.015899 0.235472
vt 0.961812 0.304773
vn 0.3361 -0.0914 -0.9374
vn 0.8239 -0.0645 0.5630
vn -0.3361 -0.0914 0.9374
vn -0.8239 -0.0645 -0.5630
vn 0.7319 0.0484 -0.6797
vn 0.9090 -0.0204 0.4162
vn 0.2249 0.0612 0.9725
vn -0.7319 0.0484 0.6797
vn -0.9090 -0.0204 -0.4162
vn -0.2249 0.0612 -0.9725
vn 0.0000 1.0000 -0.0000
vn 0.0000 -1.0000 0.0000
s off
f 1/1/1 3/2/1 9/3/1
f 5/4/2 4/5/2 3/2/2
f 6/6/3 8/7/3 4/5/3
f 10/8/4 9/9/4 8/7/4
f 1/1/5 2/10/5 3/2/5
f 2/10/6 5/4/6 3/2/6
f 5/4/7 6/6/7 4/5/7
f 6/6/8 7/11/8 8/7/8
f 7/11/9 10/8/9 8/7/9
f 10/8/10 1/12/10 9/9/10
f 6/13/11 5/14/11 1/15/11
f 9/16/12 4/17/12 8/18/12
f 2/19/11 1/15/11 5/14/11
f 1/15/11 10/20/11 6/13/11
f 10/20/11 7/21/11 6/13/11
f 9/16/12 3/22/12 4/17/12
